<svg width="298" height="23" viewBox="0 0 298 23" fill="none" xmlns="http://www.w3.org/2000/svg">
<path d="M113.99 22.46C110.47 21.68 99.85 17.73 98.24 17.03C98.05 16.95 97.85 16.88 97.65 16.81L94.38 3.39998L91.89 13.62L89.92 5.52998L88.24 12.43L87.24 8.33998L85.76 14.44C85.44 14.44 85.13 14.49 84.82 14.56L82.79 6.20999L80.87 14.1C80.86 14.1 80.86 14.09 80.85 14.09L77.83 1.68999L75.28 12.18C75.12 12.1 74.97 12.02 74.8 11.94L72.88 4.04999L71.22 10.88C70.82 10.8 70.43 10.71 70.03 10.63L67.57 0.539978L65.28 9.94998L64.16 5.36998L62.91 10.52C62.9 10.52 62.88 10.51 62.87 10.51C62.55 10.51 62.22 10.52 61.9 10.52L61.01 6.86998L60.04 10.85C59.93 10.88 59.83 10.92 59.72 10.94C59.69 10.95 59.66 10.95 59.63 10.96L59.11 8.83998L58.53 11.23C58.02 11.36 57.51 11.48 57 11.6L55.96 7.33998L54.84 11.92L52.55 2.50998L49.99 13.04C49.87 13.07 49.74 13.09 49.62 13.11C49.41 13.15 49.21 13.2 49 13.26L47.24 6.01999L45.05 15L42.29 3.64998L40.72 10.09L39.47 4.94998L36.79 15.96C36.74 15.96 36.68 15.96 36.63 15.96L34.52 7.30998L32.4 16.02C32.33 16.02 32.26 16.02 32.19 16.02L29.21 3.78998L26.92 13.2L25.8 8.61998L24.04 15.84L22.65 10.13L21.46 15L20.76 12.11L19.37 17.82L17.61 10.6L16.49 15.18L14.2 5.76999L11.12 18.44L8.89001 9.28998L6.70001 18.27L3.94001 6.91998L0.140015 22.52H7.74001L7.72001 22.43H113.99V22.46Z" fill="#E4B9BA"/>
<path d="M290.01 22.46L289.99 22.55H297.59L293.79 6.95L291.03 18.3L288.84 9.32001L286.61 18.47L283.53 5.8L281.24 15.21L280.12 10.63L278.36 17.85L276.97 12.14L276.27 15.03L275.08 10.16L273.69 15.87L271.93 8.64999L270.81 13.23L268.52 3.82001L265.54 16.05C265.47 16.05 265.4 16.05 265.33 16.05L263.21 7.34L261.1 15.99C261.05 15.99 260.99 15.99 260.94 15.99L258.26 4.98L257.01 10.12L255.44 3.67999L252.68 15.03L250.49 6.05L248.73 13.29C248.53 13.24 248.32 13.19 248.11 13.14C247.99 13.11 247.86 13.09 247.74 13.07L245.18 2.53999L242.89 11.95L241.77 7.37L240.73 11.63C240.22 11.51 239.71 11.39 239.2 11.26L238.62 8.87L238.1 10.99C238.07 10.98 238.04 10.98 238.01 10.97C237.9 10.94 237.8 10.91 237.69 10.88L236.72 6.89999L235.83 10.55C235.51 10.55 235.18 10.54 234.86 10.54C234.85 10.54 234.84 10.55 234.82 10.55L233.57 5.39999L232.45 9.98L230.16 0.570007L227.7 10.66C227.3 10.74 226.9 10.83 226.51 10.91L224.85 4.08L222.93 11.97C222.77 12.04 222.61 12.13 222.45 12.21L219.9 1.72L216.88 14.12C216.87 14.12 216.87 14.13 216.86 14.13L214.94 6.24001L212.91 14.59C212.6 14.52 212.29 14.46 211.97 14.47L210.49 8.37L209.49 12.46L207.81 5.56L205.84 13.65L203.35 3.42999L200.08 16.84C199.89 16.92 199.68 16.98 199.49 17.06C197.88 17.76 195.7 21.7 192.18 22.49H290.01V22.46Z" fill="#B576B0"/>
</svg>
