<svg width="515" height="54" viewBox="0 0 515 54" fill="none" xmlns="http://www.w3.org/2000/svg">
<path d="M515 53.1586V6.22446H431.218H417.929H320.459H222.3H209.01H111.541H0.1073V53.1586H14.1629V22.0412C14.1629 17.4874 20.3554 13.8141 28.004 13.8141C35.6526 13.8141 41.845 17.5026 41.845 22.0412V53.1586H55.9313V22.0412C55.9313 17.4874 62.1237 13.8141 69.7723 13.8141C77.4209 13.8141 83.6134 17.5026 83.6134 22.0412V53.1586H97.6996V22.0412C97.6996 17.4874 103.892 13.8141 111.541 13.8141C119.189 13.8141 125.382 17.5026 125.382 22.0412V53.1586H139.468V22.0412C139.468 17.4874 145.66 13.8141 153.309 13.8141C160.958 13.8141 167.15 17.5026 167.15 22.0412V53.1586H181.236V22.0412C181.236 17.4874 187.429 13.8141 195.077 13.8141C202.726 13.8141 208.918 17.5026 208.918 22.0412V53.1586H209.01H222.3H223.081V22.0412C223.081 17.4874 229.274 13.8141 236.922 13.8141C244.571 13.8141 250.763 17.5026 250.763 22.0412V53.1586H264.85V22.0412C264.85 17.4874 271.042 13.8141 278.691 13.8141C286.339 13.8141 292.532 17.5026 292.532 22.0412V53.1586H306.618V22.0412C306.618 17.4874 312.811 13.8141 320.459 13.8141C328.108 13.8141 334.3 17.5026 334.3 22.0412V53.1586H348.386V22.0412C348.386 17.4874 354.579 13.8141 362.227 13.8141C369.876 13.8141 376.068 17.5026 376.068 22.0412V53.1586H390.155V22.0412C390.155 17.4874 396.347 13.8141 403.996 13.8141C411.644 13.8141 417.837 17.5026 417.837 22.0412V53.1586H417.929H431.218H432V22.0412C432 17.4874 438.192 13.8141 445.841 13.8141C453.489 13.8141 459.682 17.5026 459.682 22.0412V53.1586H473.768V22.0412C473.768 17.4874 479.961 13.8141 487.609 13.8141C495.258 13.8141 501.45 17.5026 501.45 22.0412V53.1586H515V53.1586Z" fill="url(#paint0_linear)"/>
<path d="M7.35736 0.092041H6.74425V6.19409H7.35736V0.092041Z" fill="#42245E"/>
<path d="M515.012 3.4436V2.83646L0.0274048 2.83646V3.4436L515.012 3.4436Z" fill="#42245E"/>
<path d="M38.0744 0.092041H37.4612V6.19409H38.0744V0.092041Z" fill="#42245E"/>
<path d="M66.063 0.092041H65.4499V6.19409H66.063V0.092041Z" fill="#42245E"/>
<path d="M96.78 0.092041H96.1669V6.19409H96.78V0.092041Z" fill="#42245E"/>
<path d="M124.769 0.092041H124.155V6.19409H124.769V0.092041Z" fill="#42245E"/>
<path d="M155.486 0.092041H154.872V6.19409H155.486V0.092041Z" fill="#42245E"/>
<path d="M183.474 0.092041H182.861V6.19409H183.474V0.092041Z" fill="#42245E"/>
<path d="M214.191 0.092041H213.578V6.19409H214.191V0.092041Z" fill="#42245E"/>
<path d="M242.18 0.092041H241.567V6.19409H242.18V0.092041Z" fill="#42245E"/>
<path d="M272.897 0.092041H272.284V6.19409H272.897V0.092041Z" fill="#42245E"/>
<path d="M300.885 0.092041H300.272V6.19409H300.885V0.092041Z" fill="#42245E"/>
<path d="M331.602 0.092041H330.989V6.19409H331.602V0.092041Z" fill="#42245E"/>
<path d="M359.591 0.092041H358.978V6.19409H359.591V0.092041Z" fill="#42245E"/>
<path d="M390.308 0.092041H389.695V6.19409H390.308V0.092041Z" fill="#42245E"/>
<path d="M418.297 0.092041H417.684V6.19409H418.297V0.092041Z" fill="#42245E"/>
<path d="M449.014 0.092041H448.401V6.19409H449.014V0.092041Z" fill="#42245E"/>
<path d="M477.002 0.092041H476.389V6.19409H477.002V0.092041Z" fill="#42245E"/>
<path d="M507.719 0.092041H507.106V6.19409H507.719V0.092041Z" fill="#42245E"/>
<defs>
<linearGradient id="paint0_linear" x1="0.105767" y1="29.6862" x2="514.999" y2="29.6862" gradientUnits="userSpaceOnUse">
<stop stop-color="#58316C"/>
<stop offset="0.2391" stop-color="#573179"/>
<stop offset="0.4859" stop-color="#563081"/>
<stop offset="0.7378" stop-color="#553087"/>
<stop offset="1" stop-color="#552F88"/>
</linearGradient>
</defs>
</svg>
