<svg width="336" height="189" viewBox="0 0 336 189" fill="none" xmlns="http://www.w3.org/2000/svg">
<path d="M336 0.0599976H0.130005V188.93H336V0.0599976Z" fill="url(#paint0_linear)"/>
<path d="M283.77 66.08C283.51 66.08 283.29 66.3 283.29 66.56C283.29 66.83 283.5 67.04 283.77 67.04C284.04 67.04 284.25 66.83 284.25 66.56C284.25 66.29 284.03 66.08 283.77 66.08Z" fill="white"/>
<path d="M237.18 64.21C237.34 64.21 237.46 64.08 237.46 63.93C237.46 63.77 237.33 63.64 237.18 63.64C237.02 63.64 236.9 63.77 236.9 63.93C236.9 64.08 237.02 64.21 237.18 64.21Z" fill="white"/>
<path d="M249.03 92.56C249.19 92.56 249.31 92.43 249.31 92.28C249.31 92.12 249.18 91.99 249.03 91.99C248.87 91.99 248.74 92.12 248.74 92.28C248.75 92.43 248.87 92.56 249.03 92.56Z" fill="white"/>
<path d="M306.7 80.09C306.54 80.09 306.42 80.22 306.42 80.38C306.42 80.54 306.55 80.66 306.7 80.66C306.86 80.66 306.99 80.53 306.99 80.38C306.98 80.22 306.86 80.09 306.7 80.09Z" fill="white"/>
<path d="M323.68 44.01C323.84 44.01 323.96 43.88 323.96 43.73C323.96 43.57 323.83 43.44 323.68 43.44C323.53 43.44 323.4 43.57 323.4 43.73C323.4 43.88 323.53 44.01 323.68 44.01Z" fill="white"/>
<path opacity="0.5" d="M322.02 64.32C321.76 64.32 321.54 64.53 321.54 64.8C321.54 65.06 321.76 65.28 322.02 65.28C322.28 65.28 322.5 65.07 322.5 64.8C322.5 64.53 322.28 64.32 322.02 64.32Z" fill="white"/>
<path opacity="0.1" d="M307.08 62.5C306.67 62.5 306.35 62.83 306.35 63.24C306.35 63.65 306.68 63.97 307.08 63.97C307.49 63.97 307.82 63.64 307.82 63.24C307.82 62.83 307.49 62.5 307.08 62.5Z" fill="white"/>
<path opacity="0.25" d="M280.22 101.26C279.81 101.26 279.49 101.59 279.49 101.99C279.49 102.39 279.82 102.72 280.22 102.72C280.63 102.72 280.95 102.39 280.95 101.99C280.95 101.59 280.62 101.26 280.22 101.26Z" fill="white"/>
<path d="M327.86 60.39C328.13 60.39 328.34 60.18 328.34 59.91C328.34 59.64 328.13 59.43 327.86 59.43C327.59 59.43 327.38 59.64 327.38 59.91C327.38 60.17 327.59 60.39 327.86 60.39Z" fill="white"/>
<path opacity="0.5" d="M300.7 94.42C300.44 94.42 300.22 94.63 300.22 94.9C300.22 95.17 300.44 95.38 300.7 95.38C300.97 95.38 301.18 95.17 301.18 94.9C301.18 94.63 300.97 94.42 300.7 94.42Z" fill="white"/>
<path d="M276.76 95.31C276.35 95.31 276.02 95.64 276.02 96.04C276.02 96.44 276.35 96.77 276.76 96.77C277.17 96.77 277.49 96.44 277.49 96.04C277.49 95.64 277.17 95.31 276.76 95.31Z" fill="white"/>
<path opacity="0.1" d="M294.42 78.62C294.01 78.62 293.69 78.95 293.69 79.35C293.69 79.76 294.02 80.08 294.42 80.08C294.83 80.08 295.15 79.75 295.15 79.35C295.15 78.95 294.82 78.62 294.42 78.62Z" fill="white"/>
<path opacity="0.25" d="M331.41 25.2C331.82 25.2 332.14 24.87 332.14 24.47C332.14 24.06 331.81 23.74 331.41 23.74C331.01 23.74 330.67 24.07 330.67 24.47C330.67 24.87 331 25.2 331.41 25.2Z" fill="white"/>
<path d="M206.07 63.01C205.8 63.01 205.59 63.22 205.59 63.49C205.59 63.76 205.8 63.97 206.07 63.97C206.34 63.97 206.55 63.76 206.55 63.49C206.55 63.22 206.34 63.01 206.07 63.01Z" fill="white"/>
<path opacity="0.5" d="M202.48 58.43C202.21 58.43 202 58.65 202 58.91C202 59.18 202.21 59.39 202.48 59.39C202.75 59.39 202.96 59.18 202.96 58.91C202.96 58.65 202.74 58.43 202.48 58.43Z" fill="white"/>
<path opacity="0.1" d="M234.11 83.54C234.52 83.54 234.85 83.21 234.85 82.81C234.85 82.4 234.52 82.07 234.11 82.07C233.7 82.07 233.38 82.4 233.38 82.81C233.38 83.21 233.71 83.54 234.11 83.54Z" fill="white"/>
<path opacity="0.25" d="M323.54 97.55C323.13 97.55 322.81 97.88 322.81 98.29C322.81 98.7 323.14 99.02 323.54 99.02C323.95 99.02 324.28 98.69 324.28 98.29C324.27 97.88 323.94 97.55 323.54 97.55Z" fill="white"/>
<path d="M258.58 33.97C258.31 33.97 258.1 34.18 258.1 34.45C258.1 34.72 258.31 34.93 258.58 34.93C258.84 34.93 259.06 34.72 259.06 34.45C259.06 34.18 258.84 33.97 258.58 33.97Z" fill="white"/>
<path opacity="0.5" d="M302.62 46.44C302.36 46.44 302.14 46.65 302.14 46.92C302.14 47.19 302.36 47.4 302.62 47.4C302.89 47.4 303.1 47.19 303.1 46.92C303.1 46.66 302.89 46.44 302.62 46.44Z" fill="white"/>
<path d="M278.68 47.34C278.27 47.34 277.94 47.67 277.94 48.07C277.94 48.48 278.27 48.8 278.68 48.8C279.09 48.8 279.41 48.47 279.41 48.07C279.42 47.67 279.09 47.34 278.68 47.34Z" fill="white"/>
<path opacity="0.1" d="M281.9 30.39C281.49 30.39 281.17 30.72 281.17 31.12C281.17 31.53 281.5 31.85 281.9 31.85C282.31 31.85 282.63 31.52 282.63 31.12C282.63 30.72 282.3 30.39 281.9 30.39Z" fill="white"/>
<path opacity="0.25" d="M329.49 73.18C329.9 73.18 330.22 72.85 330.22 72.44C330.22 72.03 329.89 71.71 329.49 71.71C329.08 71.71 328.76 72.04 328.76 72.44C328.75 72.85 329.08 73.18 329.49 73.18Z" fill="white"/>
<path d="M325.94 93.65C325.67 93.65 325.46 93.86 325.46 94.13C325.46 94.39 325.67 94.61 325.94 94.61C326.2 94.61 326.42 94.39 326.42 94.13C326.42 93.87 326.2 93.65 325.94 93.65Z" fill="white"/>
<path opacity="0.5" d="M201.32 89.71C201.06 89.71 200.84 89.92 200.84 90.19C200.84 90.46 201.06 90.67 201.32 90.67C201.59 90.67 201.8 90.46 201.8 90.19C201.8 89.93 201.59 89.71 201.32 89.71Z" fill="white"/>
<path d="M238.48 35.31C238.883 35.31 239.21 34.9832 239.21 34.58C239.21 34.1768 238.883 33.85 238.48 33.85C238.077 33.85 237.75 34.1768 237.75 34.58C237.75 34.9832 238.077 35.31 238.48 35.31Z" fill="white"/>
<path opacity="0.1" d="M235.26 52.26C235.67 52.26 235.99 51.93 235.99 51.53C235.99 51.12 235.66 50.8 235.26 50.8C234.85 50.8 234.53 51.13 234.53 51.53C234.53 51.93 234.86 52.26 235.26 52.26Z" fill="white"/>
<path opacity="0.25" d="M262.13 13.5C262.54 13.5 262.86 13.17 262.86 12.76C262.86 12.35 262.53 12.03 262.13 12.03C261.72 12.03 261.4 12.36 261.4 12.76C261.39 13.17 261.72 13.5 262.13 13.5Z" fill="white"/>
<path d="M19.93 88.82C20.09 88.82 20.22 88.69 20.22 88.54C20.22 88.38 20.09 88.25 19.93 88.25C19.77 88.25 19.65 88.38 19.65 88.54C19.65 88.69 19.77 88.82 19.93 88.82Z" fill="white"/>
<path d="M94.58 40.27C94.74 40.27 94.86 40.14 94.86 39.98C94.86 39.82 94.73 39.7 94.58 39.7C94.42 39.7 94.29 39.83 94.29 39.98C94.3 40.14 94.42 40.27 94.58 40.27Z" fill="white"/>
<path opacity="0.5" d="M27.61 60.04C27.88 60.04 28.09 59.83 28.09 59.56C28.09 59.3 27.88 59.08 27.61 59.08C27.34 59.08 27.13 59.29 27.13 59.56C27.13 59.82 27.34 60.04 27.61 60.04Z" fill="white"/>
<path opacity="0.25" d="M75.2 37.33C75.61 37.33 75.93 37 75.93 36.6C75.93 36.19 75.6 35.87 75.2 35.87C74.79 35.87 74.47 36.2 74.47 36.6C74.46 37 74.79 37.33 75.2 37.33Z" fill="white"/>
<path d="M98.76 56.65C99.03 56.65 99.24 56.43 99.24 56.17C99.24 55.9 99.03 55.69 98.76 55.69C98.49 55.69 98.28 55.9 98.28 56.17C98.28 56.43 98.49 56.65 98.76 56.65Z" fill="white"/>
<path d="M78.65 43.28C79.06 43.28 79.38 42.95 79.38 42.55C79.38 42.14 79.05 41.82 78.65 41.82C78.24 41.82 77.92 42.15 77.92 42.55C77.92 42.95 78.25 43.28 78.65 43.28Z" fill="white"/>
<path opacity="0.25" d="M102.31 21.46C102.713 21.46 103.04 21.1332 103.04 20.73C103.04 20.3268 102.713 20 102.31 20C101.907 20 101.58 20.3268 101.58 20.73C101.58 21.1332 101.907 21.46 102.31 21.46Z" fill="white"/>
<path d="M28.33 76.22C28.5951 76.22 28.81 76.0051 28.81 75.74C28.81 75.4749 28.5951 75.26 28.33 75.26C28.0649 75.26 27.85 75.4749 27.85 75.74C27.85 76.0051 28.0649 76.22 28.33 76.22Z" fill="white"/>
<path opacity="0.25" d="M31.88 41.04C32.29 41.04 32.61 40.71 32.61 40.31C32.61 39.9 32.28 39.57 31.88 39.57C31.47 39.57 31.15 39.9 31.15 40.31C31.14 40.71 31.47 41.04 31.88 41.04Z" fill="white"/>
<path d="M96.84 104.62C97.11 104.62 97.32 104.41 97.32 104.14C97.32 103.88 97.11 103.66 96.84 103.66C96.57 103.66 96.36 103.87 96.36 104.14C96.36 104.41 96.57 104.62 96.84 104.62Z" fill="white"/>
<path opacity="0.5" d="M39.18 13.22C39.45 13.22 39.66 13.01 39.66 12.74C39.66 12.48 39.45 12.26 39.18 12.26C38.92 12.26 38.7 12.47 38.7 12.74C38.7 13.01 38.91 13.22 39.18 13.22Z" fill="white"/>
<path d="M63.12 12.33C63.53 12.33 63.85 12 63.85 11.59C63.85 11.18 63.52 10.86 63.12 10.86C62.72 10.86 62.39 11.19 62.39 11.59C62.38 12 62.71 12.33 63.12 12.33Z" fill="white"/>
<path opacity="0.1" d="M59.9 29.28C60.31 29.28 60.63 28.95 60.63 28.55C60.63 28.14 60.3 27.82 59.9 27.82C59.49 27.82 59.16 28.15 59.16 28.55C59.17 28.95 59.5 29.28 59.9 29.28Z" fill="white"/>
<path opacity="0.25" d="M100.39 69.44C100.8 69.44 101.12 69.11 101.12 68.7C101.12 68.29 100.79 67.97 100.39 67.97C99.98 67.97 99.66 68.3 99.66 68.7C99.66 69.1 99.98 69.44 100.39 69.44Z" fill="white"/>
<path d="M29.48 44.94C29.74 44.94 29.96 44.73 29.96 44.46C29.96 44.2 29.75 43.98 29.48 43.98C29.21 43.98 29 44.19 29 44.46C29 44.73 29.21 44.94 29.48 44.94Z" fill="white"/>
<path opacity="0.25" d="M33.03 9.75999C33.44 9.75999 33.76 9.42999 33.76 9.01999C33.76 8.60999 33.43 8.28999 33.03 8.28999C32.62 8.28999 32.3 8.61999 32.3 9.01999C32.29 9.42999 32.62 9.75999 33.03 9.75999Z" fill="white"/>
<path d="M135.99 65.68C135.73 65.61 135.58 65.35 135.65 65.09C135.72 64.83 135.98 64.68 136.24 64.75C136.5 64.82 136.65 65.08 136.58 65.34C136.51 65.59 136.25 65.75 135.99 65.68Z" fill="white"/>
<path d="M215.34 55.62C215.49 55.66 215.58 55.82 215.54 55.97C215.5 56.12 215.34 56.21 215.19 56.17C215.04 56.13 214.95 55.97 214.99 55.82C215.03 55.67 215.18 55.58 215.34 55.62Z" fill="white"/>
<path d="M181.81 94.68C181.66 94.64 181.57 94.48 181.61 94.33C181.65 94.18 181.81 94.09 181.96 94.13C182.11 94.17 182.2 94.33 182.16 94.48C182.12 94.63 181.96 94.72 181.81 94.68Z" fill="white"/>
<path d="M161.75 58C161.6 57.96 161.51 57.8 161.55 57.65C161.59 57.5 161.75 57.41 161.9 57.45C162.05 57.49 162.14 57.65 162.1 57.8C162.05 57.95 161.9 58.04 161.75 58Z" fill="white"/>
<path d="M122.07 28.64C121.92 28.6 121.83 28.44 121.87 28.29C121.91 28.14 122.07 28.05 122.22 28.09C122.37 28.13 122.46 28.29 122.42 28.44C122.38 28.59 122.23 28.68 122.07 28.64Z" fill="white"/>
<path opacity="0.5" d="M181.76 64.89C181.5 64.82 181.35 64.56 181.42 64.3C181.49 64.04 181.75 63.89 182.01 63.96C182.27 64.03 182.42 64.29 182.35 64.55C182.28 64.81 182.01 64.96 181.76 64.89Z" fill="white"/>
<path opacity="0.1" d="M157.61 75.11C157.22 75.01 156.98 74.6 157.09 74.21C157.19 73.82 157.6 73.58 157.99 73.69C158.38 73.79 158.62 74.2 158.51 74.59C158.41 74.98 158.01 75.21 157.61 75.11Z" fill="white"/>
<path opacity="0.25" d="M141.56 30.76C141.17 30.66 140.93 30.25 141.04 29.86C141.14 29.47 141.55 29.23 141.94 29.34C142.33 29.44 142.57 29.85 142.46 30.24C142.36 30.63 141.96 30.86 141.56 30.76Z" fill="white"/>
<path d="M113.85 43.4C113.59 43.33 113.44 43.07 113.51 42.81C113.58 42.55 113.84 42.4 114.1 42.47C114.36 42.54 114.51 42.8 114.44 43.06C114.37 43.32 114.1 43.47 113.85 43.4Z" fill="white"/>
<path opacity="0.5" d="M159.61 42.62C159.35 42.55 159.2 42.29 159.27 42.03C159.34 41.77 159.6 41.62 159.86 41.69C160.12 41.76 160.27 42.02 160.2 42.28C160.13 42.53 159.87 42.69 159.61 42.62Z" fill="white"/>
<path d="M136.7 35.62C136.31 35.52 136.07 35.11 136.18 34.72C136.28 34.33 136.69 34.09 137.08 34.2C137.47 34.3 137.71 34.71 137.6 35.1C137.5 35.49 137.09 35.73 136.7 35.62Z" fill="white"/>
<path opacity="0.1" d="M149.5 56.28C149.11 56.18 148.87 55.77 148.98 55.38C149.08 54.99 149.49 54.75 149.88 54.86C150.27 54.96 150.51 55.37 150.4 55.76C150.29 56.15 149.89 56.39 149.5 56.28Z" fill="white"/>
<path opacity="0.25" d="M119.42 8.48C119.03 8.38 118.79 7.97 118.9 7.58C119 7.19 119.41 6.95 119.8 7.06C120.19 7.16 120.43 7.57 120.32 7.96C120.21 8.35 119.81 8.59 119.42 8.48Z" fill="white"/>
<path d="M144 88.53C143.74 88.46 143.59 88.2 143.66 87.94C143.73 87.68 143.99 87.53 144.25 87.6C144.51 87.67 144.66 87.93 144.59 88.19C144.51 88.45 144.25 88.6 144 88.53Z" fill="white"/>
<path opacity="0.5" d="M198.6 35.26C198.86 35.33 199.01 35.59 198.94 35.85C198.87 36.11 198.61 36.26 198.35 36.19C198.09 36.12 197.94 35.86 198.01 35.6C198.08 35.35 198.34 35.2 198.6 35.26Z" fill="white"/>
<path opacity="0.1" d="M217.32 36.14C217.71 36.24 217.95 36.65 217.84 37.04C217.74 37.43 217.33 37.67 216.94 37.56C216.55 37.46 216.31 37.05 216.42 36.66C216.52 36.27 216.92 36.04 217.32 36.14Z" fill="white"/>
<path opacity="0.25" d="M182.49 45.43C182.1 45.33 181.86 44.92 181.97 44.53C182.07 44.14 182.48 43.9 182.87 44.01C183.26 44.11 183.5 44.52 183.39 44.91C183.29 45.3 182.89 45.53 182.49 45.43Z" fill="white"/>
<path d="M103.42 90.27C103.16 90.2 103.01 89.94 103.08 89.68C103.15 89.42 103.41 89.27 103.67 89.34C103.93 89.41 104.08 89.67 104.01 89.93C103.94 90.19 103.68 90.34 103.42 90.27Z" fill="white"/>
<path opacity="0.5" d="M130.43 67.04C130.17 66.97 130.02 66.71 130.09 66.45C130.16 66.19 130.42 66.04 130.68 66.11C130.94 66.18 131.09 66.44 131.02 66.7C130.95 66.96 130.69 67.11 130.43 67.04Z" fill="white"/>
<path d="M126.28 82.49C125.89 82.39 125.65 81.98 125.76 81.59C125.86 81.2 126.27 80.96 126.66 81.07C127.05 81.17 127.29 81.58 127.18 81.97C127.07 82.36 126.67 82.6 126.28 82.49Z" fill="white"/>
<path opacity="0.1" d="M125.05 99.7C124.66 99.6 124.42 99.19 124.53 98.8C124.63 98.41 125.04 98.17 125.43 98.28C125.82 98.38 126.06 98.79 125.95 99.18C125.84 99.57 125.44 99.81 125.05 99.7Z" fill="white"/>
<path opacity="0.25" d="M109 55.35C108.61 55.25 108.37 54.84 108.48 54.45C108.58 54.06 108.99 53.82 109.38 53.93C109.77 54.03 110.01 54.44 109.9 54.83C109.79 55.22 109.39 55.46 109 55.35Z" fill="white"/>
<path d="M183.81 49.82C183.55 49.75 183.4 49.49 183.47 49.23C183.54 48.97 183.8 48.82 184.06 48.89C184.32 48.96 184.47 49.22 184.4 49.48C184.33 49.73 184.07 49.89 183.81 49.82Z" fill="white"/>
<path opacity="0.5" d="M229.58 49.03C229.32 48.96 229.17 48.7 229.24 48.44C229.31 48.18 229.57 48.03 229.83 48.1C230.09 48.17 230.24 48.43 230.17 48.69C230.1 48.95 229.84 49.1 229.58 49.03Z" fill="white"/>
<path d="M182.5 30.97C182.11 30.87 181.87 30.46 181.98 30.07C182.08 29.68 182.49 29.44 182.88 29.55C183.27 29.65 183.51 30.06 183.4 30.45C183.3 30.84 182.89 31.08 182.5 30.97Z" fill="white"/>
<path opacity="0.1" d="M210.42 66.67C210.81 66.77 211.05 67.18 210.94 67.57C210.84 67.96 210.43 68.2 210.04 68.09C209.65 67.99 209.41 67.58 209.52 67.19C209.63 66.8 210.03 66.57 210.42 66.67Z" fill="white"/>
<path opacity="0.25" d="M189.39 14.9C189 14.8 188.76 14.39 188.87 14C188.97 13.61 189.38 13.37 189.77 13.48C190.16 13.58 190.4 13.99 190.29 14.38C190.18 14.77 189.78 15 189.39 14.9Z" fill="white"/>
<path d="M97.72 45.7C97.56 45.7 97.44 45.57 97.44 45.42C97.44 45.27 97.57 45.14 97.72 45.14C97.88 45.14 98.01 45.27 98.01 45.42C98.01 45.57 97.88 45.7 97.72 45.7Z" fill="white"/>
<path d="M85.87 74.06C85.71 74.06 85.58 73.93 85.58 73.77C85.58 73.61 85.71 73.49 85.87 73.49C86.03 73.49 86.16 73.62 86.16 73.77C86.16 73.93 86.03 74.06 85.87 74.06Z" fill="white"/>
<path d="M11.22 25.5C11.06 25.5 10.94 25.37 10.94 25.22C10.94 25.06 11.07 24.93 11.22 24.93C11.38 24.93 11.51 25.06 11.51 25.22C11.51 25.38 11.38 25.5 11.22 25.5Z" fill="white"/>
<path opacity="0.5" d="M12.89 45.82C13.15 45.82 13.37 46.03 13.37 46.3C13.37 46.57 13.16 46.78 12.89 46.78C12.62 46.78 12.41 46.57 12.41 46.3C12.41 46.03 12.62 45.82 12.89 45.82Z" fill="white"/>
<path opacity="0.25" d="M54.69 84.23C55.0932 84.23 55.42 83.9032 55.42 83.5C55.42 83.0968 55.0932 82.77 54.69 82.77C54.2868 82.77 53.96 83.0968 53.96 83.5C53.96 83.9032 54.2868 84.23 54.69 84.23Z" fill="white"/>
<path d="M7.04998 41.89C6.78998 41.89 6.56998 41.68 6.56998 41.41C6.56998 41.15 6.78998 40.93 7.04998 40.93C7.31998 40.93 7.52998 41.14 7.52998 41.41C7.52998 41.67 7.30998 41.89 7.04998 41.89Z" fill="white"/>
<path opacity="0.5" d="M34.2 75.92C34.46 75.92 34.68 76.13 34.68 76.4C34.68 76.67 34.47 76.88 34.2 76.88C33.93 76.88 33.72 76.67 33.72 76.4C33.72 76.13 33.94 75.92 34.2 75.92Z" fill="white"/>
<path d="M58.14 76.81C58.55 76.81 58.87 77.14 58.87 77.54C58.87 77.95 58.54 78.27 58.14 78.27C57.74 78.27 57.41 77.94 57.41 77.54C57.41 77.14 57.74 76.81 58.14 76.81Z" fill="white"/>
<path opacity="0.25" d="M3.49999 6.69999C3.08999 6.69999 2.76999 6.36999 2.76999 5.96999C2.76999 5.55999 3.09999 5.23999 3.49999 5.23999C3.90999 5.23999 4.22999 5.56999 4.22999 5.96999C4.22999 6.36999 3.90999 6.69999 3.49999 6.69999Z" fill="white"/>
<path d="M128.83 44.5C129.09 44.5 129.31 44.71 129.31 44.98C129.31 45.24 129.1 45.46 128.83 45.46C128.56 45.46 128.35 45.25 128.35 44.98C128.35 44.72 128.57 44.5 128.83 44.5Z" fill="white"/>
<path opacity="0.5" d="M132.43 40.89C132.695 40.89 132.91 40.6751 132.91 40.41C132.91 40.1449 132.695 39.93 132.43 39.93C132.165 39.93 131.95 40.1449 131.95 40.41C131.95 40.6751 132.165 40.89 132.43 40.89Z" fill="white"/>
<path opacity="0.1" d="M100.79 65.04C100.38 65.04 100.06 64.71 100.06 64.31C100.06 63.9 100.39 63.58 100.79 63.58C101.2 63.58 101.52 63.91 101.52 64.31C101.53 64.71 101.2 65.04 100.79 65.04Z" fill="white"/>
<path opacity="0.25" d="M11.37 79.05C11.78 79.05 12.1 79.38 12.1 79.78C12.1 80.19 11.77 80.51 11.37 80.51C10.96 80.51 10.63 80.18 10.63 79.78C10.63 79.38 10.96 79.05 11.37 79.05Z" fill="white"/>
<path d="M76.33 15.47C76.6 15.47 76.81 15.68 76.81 15.95C76.81 16.22 76.6 16.43 76.33 16.43C76.06 16.43 75.85 16.22 75.85 15.95C75.85 15.68 76.06 15.47 76.33 15.47Z" fill="white"/>
<path opacity="0.5" d="M32.28 27.94C32.55 27.94 32.76 28.15 32.76 28.42C32.76 28.68 32.55 28.9 32.28 28.9C32.01 28.9 31.8 28.69 31.8 28.42C31.81 28.15 32.02 27.94 32.28 27.94Z" fill="white"/>
<path d="M56.22 28.84C56.63 28.84 56.96 29.17 56.96 29.57C56.96 29.98 56.63 30.31 56.22 30.31C55.81 30.31 55.49 29.98 55.49 29.57C55.49 29.16 55.82 28.84 56.22 28.84Z" fill="white"/>
<path opacity="0.1" d="M53.01 11.89C53.42 11.89 53.74 12.22 53.74 12.62C53.74 13.03 53.41 13.36 53.01 13.36C52.61 13.36 52.28 13.03 52.28 12.62C52.28 12.21 52.6 11.89 53.01 11.89Z" fill="white"/>
<path opacity="0.25" d="M5.42 54.68C5.01 54.68 4.69 54.35 4.69 53.95C4.69 53.54 5.02 53.22 5.42 53.22C5.83 53.22 6.15 53.55 6.15 53.95C6.15 54.35 5.82 54.68 5.42 54.68Z" fill="white"/>
<path d="M8.96999 75.15C9.23999 75.15 9.44999 75.37 9.44999 75.63C9.44999 75.9 9.23999 76.11 8.96999 76.11C8.69999 76.11 8.48999 75.9 8.48999 75.63C8.48999 75.36 8.69999 75.15 8.96999 75.15Z" fill="white"/>
<path opacity="0.5" d="M133.58 71.21C133.84 71.21 134.06 71.43 134.06 71.69C134.06 71.96 133.85 72.17 133.58 72.17C133.31 72.17 133.1 71.96 133.1 71.69C133.1 71.43 133.32 71.21 133.58 71.21Z" fill="white"/>
<path d="M96.43 16.81C96.02 16.81 95.7 16.48 95.7 16.08C95.7 15.67 96.03 15.34 96.43 15.34C96.84 15.34 97.16 15.67 97.16 16.08C97.16 16.48 96.83 16.81 96.43 16.81Z" fill="white"/>
<path opacity="0.1" d="M99.64 33.76C99.23 33.76 98.91 33.43 98.91 33.03C98.91 32.62 99.24 32.29 99.64 32.29C100.05 32.29 100.37 32.62 100.37 33.03C100.38 33.43 100.05 33.76 99.64 33.76Z" fill="white"/>
<path d="M314.97 70.31C314.81 70.31 314.69 70.18 314.69 70.02C314.69 69.86 314.82 69.74 314.97 69.74C315.12 69.74 315.25 69.87 315.25 70.02C315.26 70.19 315.13 70.31 314.97 70.31Z" fill="white"/>
<path d="M240.32 21.76C240.16 21.76 240.04 21.63 240.04 21.48C240.04 21.32 240.17 21.19 240.32 21.19C240.48 21.19 240.61 21.32 240.61 21.48C240.61 21.64 240.48 21.76 240.32 21.76Z" fill="white"/>
<path opacity="0.5" d="M307.3 41.54C307.03 41.54 306.82 41.33 306.82 41.06C306.82 40.79 307.03 40.58 307.3 40.58C307.57 40.58 307.78 40.79 307.78 41.06C307.78 41.32 307.56 41.54 307.3 41.54Z" fill="white"/>
<path opacity="0.25" d="M259.71 18.82C259.3 18.82 258.97 18.49 258.97 18.09C258.97 17.68 259.3 17.36 259.71 17.36C260.12 17.36 260.44 17.69 260.44 18.09C260.44 18.5 260.11 18.82 259.71 18.82Z" fill="white"/>
<path d="M236.15 38.14C235.89 38.14 235.67 37.93 235.67 37.66C235.67 37.39 235.88 37.18 236.15 37.18C236.42 37.18 236.63 37.39 236.63 37.66C236.63 37.93 236.42 38.14 236.15 38.14Z" fill="white"/>
<path d="M256.25 24.77C255.84 24.77 255.52 24.44 255.52 24.04C255.52 23.63 255.85 23.31 256.25 23.31C256.66 23.31 256.98 23.64 256.98 24.04C256.99 24.44 256.66 24.77 256.25 24.77Z" fill="white"/>
<path d="M306.58 57.72C306.31 57.72 306.1 57.51 306.1 57.24C306.1 56.98 306.31 56.76 306.58 56.76C306.85 56.76 307.06 56.98 307.06 57.24C307.06 57.5 306.84 57.72 306.58 57.72Z" fill="white"/>
<path opacity="0.25" d="M303.03 22.53C302.62 22.53 302.3 22.2 302.3 21.8C302.3 21.39 302.63 21.07 303.03 21.07C303.44 21.07 303.76 21.4 303.76 21.8C303.76 22.2 303.43 22.53 303.03 22.53Z" fill="white"/>
<path d="M238.07 86.12C237.81 86.12 237.59 85.9 237.59 85.64C237.59 85.37 237.81 85.16 238.07 85.16C238.34 85.16 238.55 85.37 238.55 85.64C238.55 85.9 238.33 86.12 238.07 86.12Z" fill="white"/>
<path opacity="0.1" d="M275 10.77C274.59 10.77 274.27 10.44 274.27 10.03C274.27 9.61999 274.6 9.29999 275 9.29999C275.41 9.29999 275.73 9.62999 275.73 10.03C275.74 10.44 275.41 10.77 275 10.77Z" fill="white"/>
<path opacity="0.25" d="M234.52 50.93C234.923 50.93 235.25 50.6032 235.25 50.2C235.25 49.7968 234.923 49.47 234.52 49.47C234.117 49.47 233.79 49.7968 233.79 50.2C233.79 50.6032 234.117 50.93 234.52 50.93Z" fill="white"/>
<path d="M305.43 26.44C305.16 26.44 304.95 26.22 304.95 25.96C304.95 25.69 305.16 25.48 305.43 25.48C305.7 25.48 305.91 25.69 305.91 25.96C305.91 26.22 305.69 26.44 305.43 26.44Z" fill="white"/>
<path d="M198.92 47.18C199.18 47.11 199.33 46.85 199.26 46.59C199.19 46.33 198.93 46.18 198.67 46.25C198.41 46.32 198.26 46.58 198.33 46.84C198.4 47.09 198.66 47.24 198.92 47.18Z" fill="white"/>
<path d="M119.57 37.12C119.42 37.16 119.33 37.32 119.37 37.47C119.41 37.62 119.57 37.71 119.72 37.67C119.87 37.63 119.96 37.47 119.92 37.32C119.88 37.17 119.72 37.07 119.57 37.12Z" fill="white"/>
<path d="M153.09 76.17C153.24 76.13 153.33 75.97 153.29 75.82C153.25 75.67 153.09 75.58 152.94 75.62C152.79 75.66 152.7 75.82 152.74 75.97C152.79 76.12 152.94 76.21 153.09 76.17Z" fill="white"/>
<path d="M173.16 39.5C173.31 39.46 173.4 39.3 173.36 39.15C173.32 39 173.16 38.91 173.01 38.95C172.86 38.99 172.77 39.15 172.81 39.3C172.85 39.45 173.01 39.54 173.16 39.5Z" fill="white"/>
<path d="M212.83 10.13C212.98 10.09 213.07 9.92998 213.03 9.77998C212.99 9.62998 212.83 9.53998 212.68 9.57998C212.53 9.61998 212.44 9.77998 212.48 9.92998C212.52 10.08 212.68 10.17 212.83 10.13Z" fill="white"/>
<path opacity="0.5" d="M153.15 46.39C153.41 46.32 153.56 46.06 153.49 45.8C153.42 45.54 153.16 45.39 152.9 45.46C152.64 45.53 152.49 45.79 152.56 46.05C152.63 46.3 152.89 46.46 153.15 46.39Z" fill="white"/>
<path opacity="0.1" d="M177.29 56.6C177.68 56.5 177.92 56.09 177.81 55.7C177.71 55.31 177.3 55.07 176.91 55.18C176.52 55.28 176.28 55.69 176.39 56.08C176.5 56.47 176.9 56.71 177.29 56.6Z" fill="white"/>
<path opacity="0.25" d="M193.34 12.25C193.73 12.15 193.97 11.74 193.86 11.35C193.76 10.96 193.35 10.72 192.96 10.83C192.57 10.93 192.33 11.34 192.44 11.73C192.55 12.12 192.95 12.36 193.34 12.25Z" fill="white"/>
<path d="M221.06 24.9C221.32 24.83 221.47 24.57 221.4 24.31C221.33 24.05 221.07 23.9 220.81 23.97C220.55 24.04 220.4 24.3 220.47 24.56C220.54 24.82 220.8 24.97 221.06 24.9Z" fill="white"/>
<path opacity="0.5" d="M175.29 24.11C175.55 24.04 175.7 23.78 175.63 23.52C175.56 23.26 175.3 23.11 175.04 23.18C174.78 23.25 174.63 23.51 174.7 23.77C174.77 24.03 175.04 24.18 175.29 24.11Z" fill="white"/>
<path d="M198.2 17.12C198.59 17.02 198.83 16.61 198.72 16.22C198.62 15.83 198.21 15.59 197.82 15.7C197.43 15.8 197.19 16.21 197.3 16.6C197.41 16.99 197.81 17.22 198.2 17.12Z" fill="white"/>
<path opacity="0.1" d="M185.41 37.78C185.8 37.68 186.04 37.27 185.93 36.88C185.83 36.49 185.42 36.25 185.03 36.36C184.64 36.46 184.4 36.87 184.51 37.26C184.62 37.65 185.02 37.88 185.41 37.78Z" fill="white"/>
<path d="M190.91 70.03C191.17 69.96 191.32 69.7 191.25 69.44C191.18 69.18 190.92 69.03 190.66 69.1C190.4 69.17 190.25 69.43 190.32 69.69C190.39 69.95 190.65 70.1 190.91 70.03Z" fill="white"/>
<path opacity="0.5" d="M136.31 16.76C136.05 16.83 135.9 17.09 135.97 17.35C136.04 17.61 136.3 17.76 136.56 17.69C136.82 17.62 136.97 17.36 136.9 17.1C136.82 16.85 136.56 16.69 136.31 16.76Z" fill="white"/>
<path opacity="0.1" d="M117.59 17.64C117.2 17.74 116.96 18.15 117.07 18.54C117.17 18.93 117.58 19.17 117.97 19.06C118.36 18.96 118.6 18.55 118.49 18.16C118.38 17.77 117.98 17.53 117.59 17.64Z" fill="white"/>
<path opacity="0.25" d="M152.41 26.93C152.8 26.83 153.04 26.42 152.93 26.03C152.83 25.64 152.42 25.4 152.03 25.51C151.64 25.61 151.4 26.02 151.51 26.41C151.62 26.8 152.02 27.03 152.41 26.93Z" fill="white"/>
<path d="M231.48 71.77C231.74 71.7 231.89 71.44 231.82 71.18C231.75 70.92 231.49 70.77 231.23 70.84C230.97 70.91 230.82 71.17 230.89 71.43C230.96 71.69 231.23 71.84 231.48 71.77Z" fill="white"/>
<path opacity="0.5" d="M204.47 48.54C204.73 48.47 204.88 48.21 204.81 47.95C204.74 47.69 204.48 47.54 204.22 47.61C203.96 47.68 203.81 47.94 203.88 48.2C203.95 48.45 204.21 48.61 204.47 48.54Z" fill="white"/>
<path d="M208.63 63.99C209.02 63.89 209.26 63.48 209.15 63.09C209.05 62.7 208.64 62.46 208.25 62.57C207.86 62.67 207.62 63.08 207.73 63.47C207.83 63.86 208.24 64.09 208.63 63.99Z" fill="white"/>
<path opacity="0.1" d="M209.86 81.2C210.25 81.1 210.49 80.69 210.38 80.3C210.28 79.91 209.87 79.67 209.48 79.78C209.09 79.88 208.85 80.29 208.96 80.68C209.06 81.07 209.47 81.3 209.86 81.2Z" fill="white"/>
<path opacity="0.25" d="M225.91 36.85C226.3 36.75 226.54 36.34 226.43 35.95C226.33 35.56 225.92 35.32 225.53 35.43C225.14 35.53 224.9 35.94 225.01 36.33C225.12 36.72 225.52 36.95 225.91 36.85Z" fill="white"/>
<path d="M151.09 31.32C151.35 31.25 151.5 30.99 151.43 30.73C151.36 30.47 151.1 30.32 150.84 30.39C150.58 30.46 150.43 30.72 150.5 30.98C150.57 31.23 150.84 31.38 151.09 31.32Z" fill="white"/>
<path opacity="0.5" d="M105.32 30.53C105.58 30.46 105.73 30.2 105.66 29.94C105.59 29.68 105.33 29.53 105.07 29.6C104.81 29.67 104.66 29.93 104.73 30.19C104.81 30.44 105.07 30.6 105.32 30.53Z" fill="white"/>
<path d="M152.4 12.47C152.79 12.37 153.03 11.96 152.92 11.57C152.82 11.18 152.41 10.94 152.02 11.05C151.63 11.15 151.39 11.56 151.5 11.95C151.61 12.34 152.01 12.57 152.4 12.47Z" fill="white"/>
<path opacity="0.1" d="M124.48 48.17C124.09 48.27 123.85 48.68 123.96 49.07C124.06 49.46 124.47 49.7 124.86 49.59C125.25 49.49 125.49 49.08 125.38 48.69C125.28 48.3 124.87 48.07 124.48 48.17Z" fill="white"/>
<defs>
<linearGradient id="paint0_linear" x1="168.067" y1="188.925" x2="168.067" y2="0.0556972" gradientUnits="userSpaceOnUse">
<stop stop-color="#FDDFC2"/>
<stop offset="0.2191" stop-color="#D8D5DE"/>
<stop offset="0.3431" stop-color="#C5D0EA"/>
<stop offset="0.3769" stop-color="#C3C7E4"/>
<stop offset="0.53" stop-color="#BB9ECA"/>
<stop offset="0.6436" stop-color="#B781B7"/>
<stop offset="0.7042" stop-color="#B576B0"/>
<stop offset="0.7975" stop-color="#B375AF"/>
<stop offset="0.8469" stop-color="#AC70AA"/>
<stop offset="0.8861" stop-color="#A067A1"/>
<stop offset="0.9198" stop-color="#8F5C95"/>
<stop offset="0.9501" stop-color="#794F87"/>
<stop offset="0.9775" stop-color="#604178"/>
<stop offset="1" stop-color="#47366A"/>
</linearGradient>
</defs>
</svg>
