<svg width="230" height="22" viewBox="0 0 230 22" fill="none" xmlns="http://www.w3.org/2000/svg">
<path d="M96.2222 18.9779C96.2222 20.0405 95.3485 20.8905 94.2909 20.8905C93.2179 20.8905 92.3596 20.0253 92.3596 18.9779C92.3596 17.9154 93.2333 17.0654 94.2909 17.0654C95.3485 17.0654 96.2222 17.9306 96.2222 18.9779Z" fill="#5A5959"/>
<path d="M94.2756 21.2396C93.0187 21.2396 92.007 20.2378 92.007 18.9931C92.007 17.7484 93.0187 16.7466 94.2756 16.7466C95.5324 16.7466 96.5441 17.7484 96.5441 18.9931C96.5594 20.2226 95.5324 21.2396 94.2756 21.2396ZM94.2756 17.3993C93.3865 17.3993 92.6661 18.1127 92.6661 18.9931C92.6661 19.8735 93.3865 20.5869 94.2756 20.5869C95.1646 20.5869 95.885 19.8735 95.885 18.9931C95.885 18.1127 95.1646 17.3993 94.2756 17.3993Z" fill="#5A5959"/>
<path d="M104.959 18.9779C104.959 20.0405 104.085 20.8905 103.028 20.8905C101.955 20.8905 101.096 20.0253 101.096 18.9779C101.096 17.9154 101.97 17.0654 103.028 17.0654C104.085 17.0654 104.959 17.9306 104.959 18.9779Z" fill="#5A5959"/>
<path d="M103.012 21.2396C101.756 21.2396 100.744 20.2378 100.744 18.9931C100.744 17.7484 101.756 16.7466 103.012 16.7466C104.269 16.7466 105.281 17.7484 105.281 18.9931C105.281 20.2226 104.269 21.2396 103.012 21.2396ZM103.012 17.3993C102.123 17.3993 101.403 18.1127 101.403 18.9931C101.403 19.8735 102.123 20.5869 103.012 20.5869C103.901 20.5869 104.622 19.8735 104.622 18.9931C104.622 18.1127 103.901 17.3993 103.012 17.3993Z" fill="#5A5959"/>
<path d="M128.595 18.9779C128.595 20.0405 127.721 20.8905 126.663 20.8905C125.59 20.8905 124.732 20.0253 124.732 18.9779C124.732 17.9154 125.606 17.0654 126.663 17.0654C127.721 17.0654 128.595 17.9306 128.595 18.9779Z" fill="#5A5959"/>
<path d="M126.648 21.2396C125.391 21.2396 124.379 20.2378 124.379 18.9931C124.379 17.7484 125.391 16.7466 126.648 16.7466C127.905 16.7466 128.916 17.7484 128.916 18.9931C128.932 20.2226 127.905 21.2396 126.648 21.2396ZM126.648 17.3993C125.759 17.3993 125.039 18.1127 125.039 18.9931C125.039 19.8735 125.759 20.5869 126.648 20.5869C127.537 20.5869 128.257 19.8735 128.257 18.9931C128.257 18.1127 127.537 17.3993 126.648 17.3993Z" fill="#5A5959"/>
<path d="M137.331 18.9779C137.331 20.0405 136.458 20.8905 135.4 20.8905C134.327 20.8905 133.469 20.0253 133.469 18.9779C133.469 17.9154 134.343 17.0654 135.4 17.0654C136.458 17.0654 137.331 17.9306 137.331 18.9779Z" fill="#5A5959"/>
<path d="M135.385 21.2396C134.128 21.2396 133.116 20.2378 133.116 18.9931C133.116 17.7484 134.128 16.7466 135.385 16.7466C136.642 16.7466 137.653 17.7484 137.653 18.9931C137.653 20.2226 136.642 21.2396 135.385 21.2396ZM135.385 17.3993C134.496 17.3993 133.775 18.1127 133.775 18.9931C133.775 19.8735 134.496 20.5869 135.385 20.5869C136.274 20.5869 136.994 19.8735 136.994 18.9931C136.994 18.1127 136.274 17.3993 135.385 17.3993Z" fill="#5A5959"/>
<path d="M13.4979 18.9779C13.4979 20.0405 12.6242 20.8905 11.5665 20.8905C10.4936 20.8905 9.63524 20.0253 9.63524 18.9779C9.63524 17.9154 10.5089 17.0654 11.5665 17.0654C12.6242 17.0654 13.4979 17.9306 13.4979 18.9779Z" fill="#5A5959"/>
<path d="M11.5666 21.2396C10.3097 21.2396 9.29803 20.2378 9.29803 18.9931C9.29803 17.7484 10.3097 16.7466 11.5666 16.7466C12.8234 16.7466 13.8351 17.7484 13.8351 18.9931C13.8351 20.2226 12.8081 21.2396 11.5666 21.2396ZM11.5666 17.3993C10.6775 17.3993 9.95713 18.1127 9.95713 18.9931C9.95713 19.8735 10.6775 20.5869 11.5666 20.5869C12.4556 20.5869 13.176 19.8735 13.176 18.9931C13.1607 18.1127 12.4402 17.3993 11.5666 17.3993Z" fill="#5A5959"/>
<path d="M22.2347 18.9779C22.2347 20.0405 21.361 20.8905 20.3034 20.8905C19.2305 20.8905 18.3721 20.0253 18.3721 18.9779C18.3721 17.9154 19.2458 17.0654 20.3034 17.0654C21.361 17.0654 22.2347 17.9306 22.2347 18.9779Z" fill="#5A5959"/>
<path d="M20.3034 21.2396C19.0465 21.2396 18.0349 20.2378 18.0349 18.9931C18.0349 17.7484 19.0465 16.7466 20.3034 16.7466C21.5603 16.7466 22.5719 17.7484 22.5719 18.9931C22.5719 20.2226 21.545 21.2396 20.3034 21.2396ZM20.3034 17.3993C19.4144 17.3993 18.694 18.1127 18.694 18.9931C18.694 19.8735 19.4144 20.5869 20.3034 20.5869C21.1924 20.5869 21.9128 19.8735 21.9128 18.9931C21.8975 18.1127 21.1771 17.3993 20.3034 17.3993Z" fill="#5A5959"/>
<path d="M36.4436 18.9779C36.4436 20.0405 35.5699 20.8905 34.5123 20.8905C33.4394 20.8905 32.581 20.0253 32.581 18.9779C32.581 17.9154 33.4547 17.0654 34.5123 17.0654C35.5699 17.0654 36.4436 17.9306 36.4436 18.9779Z" fill="#5A5959"/>
<path d="M34.497 21.2396C33.2401 21.2396 32.2285 20.2378 32.2285 18.9931C32.2285 17.7484 33.2401 16.7466 34.497 16.7466C35.7539 16.7466 36.7655 17.7484 36.7655 18.9931C36.7655 20.2226 35.7539 21.2396 34.497 21.2396ZM34.497 17.3993C33.608 17.3993 32.8876 18.1127 32.8876 18.9931C32.8876 19.8735 33.608 20.5869 34.497 20.5869C35.386 20.5869 36.1064 19.8735 36.1064 18.9931C36.1064 18.1127 35.386 17.3993 34.497 17.3993Z" fill="#5A5959"/>
<path d="M45.1805 18.9779C45.1805 20.0405 44.3068 20.8905 43.2492 20.8905C42.1762 20.8905 41.3179 20.0253 41.3179 18.9779C41.3179 17.9154 42.1916 17.0654 43.2492 17.0654C44.3068 17.0654 45.1805 17.9306 45.1805 18.9779Z" fill="#5A5959"/>
<path d="M43.2339 21.2396C41.977 21.2396 40.9653 20.2378 40.9653 18.9931C40.9653 17.7484 41.977 16.7466 43.2339 16.7466C44.4908 16.7466 45.5024 17.7484 45.5024 18.9931C45.5024 20.2226 44.4908 21.2396 43.2339 21.2396ZM43.2339 17.3993C42.3449 17.3993 41.6244 18.1127 41.6244 18.9931C41.6244 19.8735 42.3449 20.5869 43.2339 20.5869C44.1229 20.5869 44.8433 19.8735 44.8433 18.9931C44.8433 18.1127 44.1229 17.3993 43.2339 17.3993Z" fill="#5A5959"/>
<path d="M60.2324 18.9779C60.2324 20.0405 59.3587 20.8905 58.3011 20.8905C57.2282 20.8905 56.3698 20.0253 56.3698 18.9779C56.3698 17.9154 57.2435 17.0654 58.3011 17.0654C59.3741 17.0654 60.2324 17.9306 60.2324 18.9779Z" fill="#5A5959"/>
<path d="M58.3011 21.2396C57.0442 21.2396 56.0326 20.2378 56.0326 18.9931C56.0326 17.7484 57.0442 16.7466 58.3011 16.7466C59.558 16.7466 60.5696 17.7484 60.5696 18.9931C60.5696 20.2226 59.5427 21.2396 58.3011 21.2396ZM58.3011 17.3993C57.4121 17.3993 56.6917 18.1127 56.6917 18.9931C56.6917 19.8735 57.4121 20.5869 58.3011 20.5869C59.1901 20.5869 59.9105 19.8735 59.9105 18.9931C59.9105 18.1127 59.1901 17.3993 58.3011 17.3993Z" fill="#5A5959"/>
<path d="M68.9693 18.9779C68.9693 20.0405 68.1109 20.8905 67.038 20.8905C65.965 20.8905 65.1067 20.0253 65.1067 18.9779C65.1067 17.9154 65.9804 17.0654 67.038 17.0654C68.1109 17.0654 68.9693 17.9306 68.9693 18.9779Z" fill="#5A5959"/>
<path d="M67.038 21.2396C65.7811 21.2396 64.7695 20.2378 64.7695 18.9931C64.7695 17.7484 65.7811 16.7466 67.038 16.7466C68.2949 16.7466 69.3065 17.7484 69.3065 18.9931C69.3065 20.2226 68.2796 21.2396 67.038 21.2396ZM67.038 17.3993C66.149 17.3993 65.4286 18.1127 65.4286 18.9931C65.4286 19.8735 66.149 20.5869 67.038 20.5869C67.927 20.5869 68.6474 19.8735 68.6474 18.9931C68.6321 18.1127 67.9117 17.3993 67.038 17.3993Z" fill="#5A5959"/>
<path d="M151.464 0.535191H78.212V16.61H151.464V0.535191Z" fill="#742E86"/>
<path d="M151.617 3.13082H78.1813V13.4831H151.617V3.13082Z" fill="#8D4C98"/>
<path d="M0.990073 13.8474C1.12802 15.593 1.61851 16.8225 4.40818 16.8225H76.7709V13.4831H0.990073C0.990073 13.4831 0.974746 13.6197 0.990073 13.8474Z" fill="#742E86"/>
<path d="M92.0684 5.89346H80.8177V10.7963H92.0684V5.89346Z" fill="#FDDFC2"/>
<path d="M106.369 5.89346H95.1186V10.7963H106.369V5.89346Z" fill="#FDDFC2"/>
<path d="M120.685 5.89346H109.435V10.7963H120.685V5.89346Z" fill="#FDDFC2"/>
<path d="M135.002 5.89346H123.751V10.7963H135.002V5.89346Z" fill="#FDDFC2"/>
<path d="M149.318 5.89346H138.067V10.7963H149.318V5.89346Z" fill="#FDDFC2"/>
<path d="M1.49615 11.0392H25.055V3.13082H10.6315C4.42377 6.24256 1.49615 11.0392 1.49615 11.0392Z" fill="white"/>
<path d="M25.055 3.17636V11.0392H19.1232H18.9392H1.49616C1.05166 11.6919 0.959689 12.4812 0.959689 13.4982C0.944361 13.4527 76.7712 13.4831 76.7712 13.4831V3.17636H25.055V3.17636Z" fill="#8D4C98"/>
<path d="M25.055 0.535191C25.055 0.535191 25.055 0.535191 21.9128 0.535191C17.3605 0.535191 13.6205 1.64326 10.6315 3.13082H25.055H76.7712V0.535191H25.055Z" fill="#742E86"/>
<path d="M74.1041 5.89346H62.8535V10.7963H74.1041V5.89346Z" fill="#FDDFC2"/>
<path d="M58.3011 5.89346H47.0505V10.7963H58.3011V5.89346Z" fill="#FDDFC2"/>
<path d="M42.4981 5.89346H31.2475V10.7963H42.4981V5.89346Z" fill="#FDDFC2"/>
<path d="M216.668 18.9779C216.668 20.0405 217.527 20.8905 218.6 20.8905C219.673 20.8905 220.531 20.0253 220.531 18.9779C220.531 17.9154 219.657 17.0654 218.6 17.0654C217.542 17.0654 216.668 17.9306 216.668 18.9779Z" fill="#5A5959"/>
<path d="M216.346 18.9779C216.346 17.7332 217.358 16.7314 218.615 16.7314C219.872 16.7314 220.884 17.7332 220.884 18.9779C220.884 20.2226 219.872 21.2245 218.615 21.2245C217.358 21.2396 216.346 20.2226 216.346 18.9779ZM217.006 18.9779C217.006 19.8583 217.726 20.5717 218.615 20.5717C219.504 20.5717 220.224 19.8583 220.224 18.9779C220.224 18.0975 219.504 17.3841 218.615 17.3841C217.726 17.3841 217.006 18.1127 217.006 18.9779Z" fill="#5A5959"/>
<path d="M207.931 18.9779C207.931 20.0405 208.79 20.8905 209.863 20.8905C210.936 20.8905 211.794 20.0253 211.794 18.9779C211.794 17.9154 210.92 17.0654 209.863 17.0654C208.805 17.0654 207.931 17.9306 207.931 18.9779Z" fill="#5A5959"/>
<path d="M207.61 18.9779C207.61 17.7332 208.621 16.7314 209.878 16.7314C211.135 16.7314 212.147 17.7332 212.147 18.9779C212.147 20.2226 211.12 21.2245 209.878 21.2245C208.621 21.2396 207.61 20.2226 207.61 18.9779ZM208.269 18.9779C208.269 19.8583 208.989 20.5717 209.878 20.5717C210.767 20.5717 211.488 19.8583 211.488 18.9779C211.488 18.0975 210.767 17.3841 209.878 17.3841C208.989 17.3993 208.269 18.1127 208.269 18.9779Z" fill="#5A5959"/>
<path d="M193.738 18.9779C193.738 20.0405 194.612 20.8905 195.669 20.8905C196.742 20.8905 197.601 20.0253 197.601 18.9779C197.601 17.9154 196.742 17.0654 195.669 17.0654C194.596 17.0654 193.738 17.9306 193.738 18.9779Z" fill="#5A5959"/>
<path d="M193.401 18.9779C193.401 17.7332 194.412 16.7314 195.669 16.7314C196.926 16.7314 197.938 17.7332 197.938 18.9779C197.938 20.2226 196.926 21.2245 195.669 21.2245C194.412 21.2396 193.401 20.2226 193.401 18.9779ZM194.06 18.9779C194.06 19.8583 194.78 20.5717 195.669 20.5717C196.558 20.5717 197.279 19.8583 197.279 18.9779C197.279 18.0975 196.558 17.3841 195.669 17.3841C194.78 17.3993 194.06 18.1127 194.06 18.9779Z" fill="#5A5959"/>
<path d="M185.001 18.9779C185.001 20.0405 185.875 20.8905 186.932 20.8905C188.005 20.8905 188.864 20.0253 188.864 18.9779C188.864 17.9154 187.99 17.0654 186.932 17.0654C185.859 17.0654 185.001 17.9306 185.001 18.9779Z" fill="#5A5959"/>
<path d="M184.664 18.9779C184.664 17.7332 185.675 16.7314 186.932 16.7314C188.189 16.7314 189.201 17.7332 189.201 18.9779C189.201 20.2226 188.189 21.2245 186.932 21.2245C185.675 21.2396 184.664 20.2226 184.664 18.9779ZM185.323 18.9779C185.323 19.8583 186.043 20.5717 186.932 20.5717C187.821 20.5717 188.542 19.8583 188.542 18.9779C188.542 18.0975 187.821 17.3841 186.932 17.3841C186.043 17.3993 185.323 18.1127 185.323 18.9779Z" fill="#5A5959"/>
<path d="M169.934 18.9779C169.934 20.0405 170.792 20.8905 171.865 20.8905C172.938 20.8905 173.796 20.0253 173.796 18.9779C173.796 17.9154 172.938 17.0654 171.865 17.0654C170.807 17.0654 169.934 17.9306 169.934 18.9779Z" fill="#5A5959"/>
<path d="M169.597 18.9779C169.597 17.7332 170.608 16.7314 171.865 16.7314C173.122 16.7314 174.134 17.7332 174.134 18.9779C174.134 20.2226 173.122 21.2245 171.865 21.2245C170.624 21.2396 169.597 20.2226 169.597 18.9779ZM170.271 18.9779C170.271 19.8583 170.991 20.5717 171.88 20.5717C172.769 20.5717 173.49 19.8583 173.49 18.9779C173.49 18.0975 172.769 17.3841 171.88 17.3841C170.991 17.3993 170.271 18.1127 170.271 18.9779Z" fill="#5A5959"/>
<path d="M161.197 18.9779C161.197 20.0405 162.055 20.8905 163.128 20.8905C164.201 20.8905 165.06 20.0253 165.06 18.9779C165.06 17.9154 164.186 17.0654 163.128 17.0654C162.071 17.0654 161.197 17.9306 161.197 18.9779Z" fill="#5A5959"/>
<path d="M160.875 18.9779C160.875 17.7332 161.887 16.7314 163.144 16.7314C164.4 16.7314 165.412 17.7332 165.412 18.9779C165.412 20.2226 164.385 21.2245 163.144 21.2245C161.887 21.2396 160.875 20.2226 160.875 18.9779ZM161.534 18.9779C161.534 19.8583 162.255 20.5717 163.144 20.5717C164.033 20.5717 164.753 19.8583 164.753 18.9779C164.753 18.0975 164.033 17.3841 163.144 17.3841C162.255 17.3993 161.534 18.1127 161.534 18.9779Z" fill="#5A5959"/>
<path d="M229.191 13.8474C229.053 15.593 228.563 16.8225 225.773 16.8225H153.41V13.4831H229.207C229.191 13.4831 229.207 13.6197 229.191 13.8474Z" fill="#742E86"/>
<path d="M228.67 11.0392H205.111V3.13082H219.535C225.758 6.24256 228.67 11.0392 228.67 11.0392Z" fill="white"/>
<path d="M228.67 11.0392H211.212H211.043H205.111V3.17636H153.395V13.4831C153.395 13.4831 229.222 13.4527 229.207 13.4982C229.207 12.4812 229.115 11.6919 228.67 11.0392Z" fill="#8D4C98"/>
<path d="M205.111 0.535191C205.111 0.535191 205.111 0.535191 208.253 0.535191C212.806 0.535191 216.546 1.64326 219.535 3.13082H205.111H153.395V0.535191H205.111Z" fill="#742E86"/>
<path d="M167.328 5.89346H156.077V10.7963H167.328V5.89346Z" fill="#FDDFC2"/>
<path d="M183.116 5.89346H171.865V10.7963H183.116V5.89346Z" fill="#FDDFC2"/>
<path d="M198.919 5.89346H187.668V10.7963H198.919V5.89346Z" fill="#FDDFC2"/>
</svg>
