<svg width="55" height="108" viewBox="0 0 55 108" fill="none" xmlns="http://www.w3.org/2000/svg">
<g filter="url(#filter0_d)">
<path d="M42.07 87.68L46.4 87.79L39.52 71.77H42.91L37.14 57.9L39.23 57.89L34.8 46.47L36.78 46.48L33.01 35.81L35.01 35.78L31.09 23.89L32.67 23.84C29.39 14.99 27.4 0.710022 27.4 0.710022V0.720016V0.710022C27.4 0.710022 25.4 14.99 22.13 23.84L23.71 23.89L19.79 35.78L21.79 35.81L18.02 46.48L20 46.47L15.57 57.89L17.66 57.9L11.89 71.77H15.28L8.39999 87.79L12.73 87.68L4.03 107.19H27.4H50.77L42.07 87.68Z" fill="#42245E"/>
</g>
<defs>
<filter id="filter0_d" x="0.0299988" y="0.710022" width="54.74" height="114.48" filterUnits="userSpaceOnUse" color-interpolation-filters="sRGB">
<feFlood flood-opacity="0" result="BackgroundImageFix"/>
<feColorMatrix in="SourceAlpha" type="matrix" values="0 0 0 0 0 0 0 0 0 0 0 0 0 0 0 0 0 0 127 0"/>
<feOffset dy="4"/>
<feGaussianBlur stdDeviation="2"/>
<feColorMatrix type="matrix" values="0 0 0 0 0 0 0 0 0 0 0 0 0 0 0 0 0 0 0.25 0"/>
<feBlend mode="normal" in2="BackgroundImageFix" result="effect1_dropShadow"/>
<feBlend mode="normal" in="SourceGraphic" in2="effect1_dropShadow" result="shape"/>
</filter>
</defs>
</svg>
