<svg width="109" height="83" viewBox="0 0 109 83" fill="none" xmlns="http://www.w3.org/2000/svg">
<path d="M75.93 42.07L77.88 42.12H77.99L74.72 34.5H76.22H76.33L73.59 27.9H74.58L72.47 22.47H73.3H73.41L71.62 17.4L72.57 17.38L70.71 11.72L71.46 11.7C69.9 7.49001 68.95 0.700012 68.95 0.700012C68.95 0.700012 68.93 0.840017 68.89 1.08002C68.85 0.840017 68.83 0.700012 68.83 0.700012C68.83 0.700012 67.88 7.49001 66.32 11.7L67.07 11.72L65.21 17.38L66.16 17.4L64.37 22.47L65.31 22.46L63.2 27.89H64.19L61.45 34.49H63.06L59.79 42.11L61.85 42.06L57.71 51.34H68.82H74.71H79.94H80.05L75.93 42.07Z" fill="#42245E"/>
<path d="M49.36 43.51L51 43.55H51.1L48.34 37.11H49.61H49.71L47.39 31.53H48.23L46.45 26.94H47.15H47.25L45.73 22.65L46.53 22.64L44.96 17.86L45.59 17.84C44.27 14.28 43.47 8.54999 43.47 8.54999C43.47 8.54999 43.45 8.66998 43.42 8.86998C43.39 8.66998 43.37 8.54999 43.37 8.54999C43.37 8.54999 42.57 14.29 41.25 17.84L41.88 17.86L40.31 22.64L41.11 22.65L39.59 26.94H40.38L38.6 31.53H39.44L37.12 37.11H38.48L35.72 43.55L37.46 43.51L33.97 51.35H43.36H48.33H52.75H52.85L49.36 43.51Z" fill="#42245E"/>
<path d="M15.72 43.51L17.46 43.55L14.7 37.11H16.06L13.74 31.53H14.58L12.8 26.94H13.59L12.07 22.65L12.87 22.64L11.3 17.86L11.93 17.84C10.61 14.28 9.81 8.54999 9.81 8.54999C9.81 8.54999 9.01 14.29 7.69 17.84L8.32001 17.86L6.75 22.64L7.55 22.65L6.03 26.94H6.82001L5.03999 31.53H5.88L3.56 37.11H4.92L2.16 43.55L3.89999 43.51L0.410004 51.35H9.8H19.19L15.72 43.51Z" fill="#42245E"/>
<path d="M10.38 17.79L11.49 22.77L10.69 22.66L11.79 27.15L11 27.03L12.34 31.86L11.51 31.74L13.29 37.63L11.94 37.42L14.08 44.23L12.36 43.92L14.81 51.35H19.32L15.83 43.51L17.57 43.55L14.81 37.11H16.17L13.85 31.53H14.69L12.91 26.94H13.7L12.18 22.65L12.98 22.64L11.41 17.86L12.04 17.84C10.72 14.28 9.92 8.54999 9.92 8.54999C9.92 8.54999 9.89001 8.78998 9.82001 9.17998C9.93001 10.94 10.26 15 11 17.86L10.38 17.79Z" fill="#4F2775"/>
<path d="M32.1 40.09L33.25 40.12H33.32L31.38 35.61H32.27H32.34L30.71 31.7H31.3L30.05 28.48H30.54H30.61L29.55 25.47L30.11 25.46L29.01 22.11L29.45 22.1C28.53 19.61 27.96 15.58 27.96 15.58C27.96 15.58 27.95 15.66 27.93 15.81C27.91 15.67 27.9 15.58 27.9 15.58C27.9 15.58 27.34 19.6 26.41 22.1L26.85 22.11L25.75 25.46L26.31 25.47L25.25 28.48H25.81L24.56 31.7H25.15L23.52 35.61H24.48L22.54 40.12L23.76 40.09L21.31 45.59H27.89H31.38H34.48H34.55L32.1 40.09Z" fill="#42245E"/>
<path d="M30.91 57.06H31.01L39.16 61.78H40.52H40.62L47.65 65.87H48.58L54.44 69.23H55.22H55.33L60.91 72.37L61.85 72.38L68.15 75.88L68.92 75.89C73.39 78.5 82.12 82.7 82.12 82.7C82.12 82.7 81.9 82.61 81.52 82.46C81.82 82.61 82.01 82.7 82.01 82.7C82.01 82.7 71.38 78.49 63.85 75.89L64.56 75.88L54.73 72.38L55.63 72.37L46.74 69.23H47.64L38.01 65.86H38.93L27.15 61.77H28.61L15.04 57.05L16.92 57.08L0.440002 51.33H9.83H14.8H19.22H19.32L29.28 57.07L30.91 57.06Z" fill="#312247"/>
<path d="M109.03 77.88V76.35C108.72 76.19 108.42 76.04 108.13 75.9L107.36 75.89L100.25 72.39L99.3 72.38L92.99 69.24H92.88H92.1L85.47 65.87H84.54L76.56 61.78H76.46H75.1L65.86 57.06H65.76L64.13 57.09L52.84 51.34H52.74H48.32H43.35H33.96L51.77 57.09L49.88 57.06L64.54 61.78H63.08L75.8 65.87H74.88L85.29 69.24H84.39L94 72.38L93.1 72.39L103.74 75.89L103.03 75.9C104.93 76.5 106.98 77.18 109.03 77.88Z" fill="#312247"/>
<path d="M109.03 68.18V63.69H108.65L96.72 58.11H96.61H96.6L94.67 58.14L80.06 51.34H79.95H74.72H68.84H57.72L79.95 58.15L77.69 58.11L96.01 63.69H94.26L109.03 68.18Z" fill="#312247"/>
<path d="M34.4 50.4L36.18 46.4L34.62 45.54H34.55H31.36H27.77H20.99L33.18 49.57L31.83 49.55L34.4 50.4Z" fill="#312247"/>
</svg>
