<svg width="59" height="121" viewBox="0 0 59 121" fill="none" xmlns="http://www.w3.org/2000/svg">
<path d="M37.93 86.53L42.19 86.64L35.43 70.88H38.77L33.09 57.23L35.14 57.22L30.78 45.98L32.72 45.99L29.01 35.5L30.98 35.47L27.13 23.77L28.68 23.73C25.46 15.03 23.49 0.980011 23.49 0.980011V0.990005V0.980011C23.49 0.980011 21.52 15.03 18.3 23.73L19.85 23.77L16 35.47L17.97 35.5L14.26 46L16.2 45.99L11.84 57.23L13.89 57.24L8.21 70.89H11.55L4.79 86.65L9.05 86.54L0.5 105.73H23.5H46.49L37.93 86.53Z" fill="#42245E"/>
<path d="M58.12 120.29L46.76 106.03H46.53H35.77H23.66H0.790009L27.81 120.29H58.12Z" fill="#312247"/>
</svg>
