<svg width="70" height="87" viewBox="0 0 70 87" fill="none" xmlns="http://www.w3.org/2000/svg">
<path d="M39.44 40.09L40.66 40.12L38.72 35.61H39.68L38.05 31.7H38.64L37.39 28.48H37.95L36.89 25.47L37.45 25.46L36.35 22.11L36.79 22.1C35.87 19.61 35.3 15.58 35.3 15.58C35.3 15.58 34.74 19.6 33.81 22.1L34.25 22.11L33.15 25.46L33.71 25.47L32.65 28.48H33.21L31.96 31.7H32.55L30.92 35.61H31.88L29.94 40.12L31.16 40.09L28.71 45.59H35.29H41.87L39.44 40.09Z" fill="#42245E"/>
<path d="M35.69 22.06L36.47 25.55L35.91 25.47L36.68 28.62L36.13 28.53L37.07 31.92L36.49 31.83L37.74 35.96L36.79 35.82L38.29 40.59L37.08 40.37L38.8 45.58H41.96L39.51 40.08L40.73 40.11L38.79 35.6H39.75L38.12 31.69H38.71L37.46 28.47H38.02L36.96 25.46L37.52 25.45L36.42 22.1L36.86 22.09C35.94 19.6 35.37 15.57 35.37 15.57C35.37 15.57 35.35 15.74 35.3 16.01C35.38 17.24 35.61 20.09 36.13 22.09L35.69 22.06Z" fill="#4F2775"/>
<path d="M47.19 49.64H47.26L50.36 52.95H51.32H51.39L54.08 55.81H54.73L57.01 58.17H57.55H57.62L59.84 60.37L60.49 60.38L63.03 62.83L63.55 62.84C65.3 64.67 69.17 67.61 69.17 67.61C69.17 67.61 69.06 67.55 68.88 67.44C69.01 67.54 69.09 67.61 69.09 67.61C69.09 67.61 63.92 64.66 60.06 62.84L60.56 62.83L55.56 60.37L56.19 60.36L51.65 58.16H52.27L47.32 55.8H47.96L41.87 52.94H42.9L35.86 49.63L37.18 49.65L28.6 45.62H35.38H38.97H42.16H42.23L46 49.65L47.19 49.64Z" fill="#312247"/>
<path d="M18.84 40.9243L20.9 40.9729L17.63 33.564H19.24L16.5 27.1468H17.49L15.38 21.8672L16.32 21.8769L14.53 16.9474L15.48 16.928L13.62 11.4247L14.37 11.4053C12.81 7.31193 11.86 0.710022 11.86 0.710022C11.86 0.710022 10.91 7.31193 9.34999 11.4053L10.1 11.4247L8.23999 16.928L9.18999 16.9474L7.39999 21.8769L8.33999 21.8672L6.23 27.1468H7.21999L4.48 33.564H6.08999L2.81999 40.9729L4.87999 40.9243L0.73999 49.9472H11.85H22.96L18.84 40.9243Z" fill="#42245E"/>
<path d="M12.52 11.3373L13.84 17.0738L12.89 16.9474L14.2 22.1103L13.27 21.9645L14.85 27.5163L13.86 27.3705L15.97 34.1474L14.37 33.914L16.9 41.7507L14.86 41.4007L17.75 49.9569H23.09L18.95 40.934L21.01 40.9826L17.74 33.5737H19.35L16.61 27.1566H17.6L15.49 21.877L16.43 21.8867L14.64 16.9571L15.59 16.9377L13.73 11.4345L14.48 11.415C12.92 7.32166 11.97 0.719757 11.97 0.719757C11.97 0.719757 11.93 0.992001 11.86 1.44898C11.99 3.47136 12.38 8.14812 13.26 11.4345L12.52 11.3373Z" fill="#4F2775"/>
<path d="M30.7827 56.7436H30.9025L35.3524 62.3101H36.9788H37.0985L40.8999 67.1283H42.0074L45.2002 71.0987H46.1381H46.2678L49.3708 74.8097L50.4982 74.8196L54.0502 78.9496L54.9681 78.9695C57.3428 82.0421 63 87 63 87C63 87 62.8304 86.9002 62.551 86.7207C62.7406 86.8903 62.8603 87 62.8603 87C62.8603 87 54.8983 82.0421 48.832 78.9596L49.71 78.9396L41.9076 74.8097L43.0051 74.7997L35.9311 71.0887H37.0087L29.3061 67.1184H30.4136L20.9849 62.3001H22.7309L11.8954 56.7336L14.1004 56.7735L1 50H12.085H17.9617H23.1799H23.2897L28.7972 56.7735L30.7827 56.7436Z" fill="#312247"/>
</svg>
